<svg id="visual" viewBox="0 0 900 600" width="900" height="600" xmlns="http://www.w3.org/2000/svg" xmlns:xlink="http://www.w3.org/1999/xlink" version="1.1"><rect x="0" y="0" width="900" height="600" fill="#02273a"></rect><path d="M0 340L11.5 342.3C23 344.7 46 349.3 69 364.2C92 379 115 404 138.2 405.3C161.3 406.7 184.7 384.3 207.8 387.2C231 390 254 418 277 434.8C300 451.7 323 457.3 346 452.5C369 447.7 392 432.3 415.2 429.3C438.3 426.3 461.7 435.7 484.8 426.8C508 418 531 391 554 399.7C577 408.3 600 452.7 623 467.5C646 482.3 669 467.7 692.2 451C715.3 434.3 738.7 415.7 761.8 422.3C785 429 808 461 831 450C854 439 877 385 888.5 358L900 331L900 601L888.5 601C877 601 854 601 831 601C808 601 785 601 761.8 601C738.7 601 715.3 601 692.2 601C669 601 646 601 623 601C600 601 577 601 554 601C531 601 508 601 484.8 601C461.7 601 438.3 601 415.2 601C392 601 369 601 346 601C323 601 300 601 277 601C254 601 231 601 207.8 601C184.7 601 161.3 601 138.2 601C115 601 92 601 69 601C46 601 23 601 11.5 601L0 601Z" fill="#0066FF" stroke-linecap="round" stroke-linejoin="miter"></path></svg>